<svg xmlns="http://www.w3.org/2000/svg" xmlns:xlink="http://www.w3.org/1999/xlink" width="100" zoomAndPan="magnify" viewBox="0 0 75 38.249999" height="51" preserveAspectRatio="xMidYMid meet" version="1.0"><defs><g/><clipPath id="ce18f29b06"><path d="M 32 1 L 53.761719 1 L 53.761719 23 L 32 23 Z M 32 1 " clip-rule="nonzero"/></clipPath><clipPath id="8dbe0ad989"><path d="M 21.34375 13 L 26 13 L 26 15 L 21.34375 15 Z M 21.34375 13 " clip-rule="nonzero"/></clipPath><clipPath id="5b28e0d7fe"><path d="M 27 22 L 30 22 L 30 26.136719 L 27 26.136719 Z M 27 22 " clip-rule="nonzero"/></clipPath></defs><g clip-path="url(#ce18f29b06)"><path fill="#2dabe3" d="M 32.644531 5.679688 C 33.289062 4.9375 33.84375 4.089844 34.59375 3.476562 C 38.824219 0.00390625 44.917969 1.367188 47.347656 6.261719 C 47.527344 6.625 47.851562 7 48.207031 7.171875 C 51.917969 8.996094 53.753906 12.519531 52.972656 16.410156 C 52.242188 20.046875 49.097656 22.6875 45.113281 22.890625 C 43.539062 22.96875 41.941406 22.960938 40.378906 22.785156 C 35.777344 22.265625 32.742188 18.523438 33.074219 13.921875 C 33.148438 12.882812 33.847656 12.15625 34.71875 12.210938 C 35.585938 12.265625 36.183594 12.9375 36.0625 14.03125 C 35.71875 17.035156 38.023438 20.105469 42.003906 19.917969 C 43.265625 19.859375 44.542969 19.945312 45.785156 19.761719 C 48.261719 19.398438 50.050781 17.320312 50.148438 14.886719 C 50.242188 12.503906 48.558594 10.253906 46.136719 9.707031 C 45.332031 9.527344 45.058594 9.160156 44.867188 8.402344 C 44.0625 5.191406 40.402344 3.578125 37.496094 5.171875 C 36.707031 5.605469 35.957031 5.792969 35.078125 5.757812 C 34.332031 5.726562 33.582031 5.820312 32.832031 5.859375 C 32.769531 5.800781 32.707031 5.738281 32.644531 5.679688 Z M 32.644531 5.679688 " fill-opacity="1" fill-rule="nonzero"/></g><path fill="#fbc927" d="M 36.707031 22.59375 C 31.644531 23.984375 26.511719 19.742188 26.734375 14.460938 C 26.917969 10.117188 30.238281 6.714844 34.488281 6.519531 C 38.75 6.320312 42.433594 9.351562 43.054688 13.621094 C 43.167969 14.386719 43.128906 15.199219 43.019531 15.96875 C 42.875 16.957031 42.199219 17.40625 41.273438 17.285156 C 40.46875 17.179688 40.007812 16.636719 40.082031 15.65625 C 40.222656 13.753906 39.800781 12.066406 38.296875 10.804688 C 36.617188 9.394531 34.707031 9.101562 32.714844 10.035156 C 30.808594 10.933594 29.765625 12.507812 29.746094 14.617188 C 29.726562 16.792969 30.777344 18.367188 32.722656 19.398438 C 33.421875 19.765625 34.015625 20.328125 34.636719 20.832031 C 35.316406 21.382812 35.972656 21.96875 36.707031 22.59375 Z M 36.707031 22.59375 " fill-opacity="1" fill-rule="nonzero"/><g clip-path="url(#8dbe0ad989)"><path fill="#fbc927" d="M 23.246094 14.238281 C 22.804688 14.238281 22.355469 14.289062 21.933594 14.214844 C 21.71875 14.175781 21.542969 13.90625 21.355469 13.738281 C 21.511719 13.570312 21.664062 13.257812 21.832031 13.25 C 22.796875 13.203125 23.765625 13.199219 24.730469 13.253906 C 24.902344 13.261719 25.050781 13.625 25.207031 13.824219 C 25.023438 13.964844 24.851562 14.195312 24.652344 14.21875 C 24.191406 14.277344 23.714844 14.238281 23.246094 14.238281 Z M 23.246094 14.238281 " fill-opacity="1" fill-rule="nonzero"/></g><g clip-path="url(#5b28e0d7fe)"><path fill="#fbc927" d="M 27.382812 26.136719 C 27.257812 25.832031 26.996094 25.492188 27.078125 25.328125 C 27.53125 24.429688 28.054688 23.570312 28.597656 22.722656 C 28.675781 22.601562 29.027344 22.539062 29.171875 22.613281 C 29.3125 22.683594 29.46875 23.023438 29.410156 23.136719 C 28.933594 24.054688 28.417969 24.953125 27.894531 25.84375 C 27.84375 25.9375 27.6875 25.96875 27.382812 26.136719 Z M 27.382812 26.136719 " fill-opacity="1" fill-rule="nonzero"/></g><path fill="#fbc927" d="M 31.21875 5.292969 C 31.078125 5.53125 31.019531 5.769531 30.890625 5.8125 C 30.71875 5.867188 30.382812 5.847656 30.3125 5.738281 C 29.757812 4.875 29.234375 3.988281 28.746094 3.085938 C 28.675781 2.957031 28.789062 2.628906 28.917969 2.527344 C 29.039062 2.433594 29.417969 2.445312 29.484375 2.542969 C 30.089844 3.441406 30.648438 4.371094 31.21875 5.292969 Z M 31.21875 5.292969 " fill-opacity="1" fill-rule="nonzero"/><path fill="#fbc927" d="M 26.078125 18.71875 C 26.070312 19.449219 23.277344 21.085938 22.910156 20.757812 C 22.765625 20.632812 22.773438 20.042969 22.90625 19.949219 C 23.683594 19.417969 24.503906 18.941406 25.347656 18.523438 C 25.535156 18.433594 25.875 18.660156 26.078125 18.71875 Z M 26.078125 18.71875 " fill-opacity="1" fill-rule="nonzero"/><path fill="#fbc927" d="M 27.179688 8.996094 C 26.835938 9.085938 26.492188 9.292969 26.296875 9.199219 C 25.453125 8.78125 24.644531 8.296875 23.855469 7.785156 C 23.714844 7.691406 23.652344 7.335938 23.707031 7.144531 C 23.742188 7.027344 24.125 6.871094 24.242188 6.933594 C 25.152344 7.417969 26.039062 7.945312 26.925781 8.476562 C 27.011719 8.527344 27.035156 8.6875 27.179688 8.996094 Z M 27.179688 8.996094 " fill-opacity="1" fill-rule="nonzero"/><g fill="#2dabe3" fill-opacity="0.4"><g transform="translate(1.137373, 35.489579)"><g><path d="M 11.03125 -6.90625 L 8.734375 0 L 7.375 0 L 5.671875 -5.109375 L 3.9375 0 L 2.5625 0 L 0.265625 -6.90625 L 1.59375 -6.90625 L 3.3125 -1.65625 L 5.109375 -6.90625 L 6.296875 -6.90625 L 8.03125 -1.625 L 9.8125 -6.90625 Z M 11.03125 -6.90625 "/></g></g></g><g fill="#2dabe3" fill-opacity="0.4"><g transform="translate(12.425808, 35.489579)"><g><path d="M 5.765625 -2.609375 C 5.765625 -2.523438 5.757812 -2.398438 5.75 -2.234375 L 1.609375 -2.234375 C 1.679688 -1.847656 1.867188 -1.539062 2.171875 -1.3125 C 2.484375 -1.09375 2.863281 -0.984375 3.3125 -0.984375 C 3.894531 -0.984375 4.375 -1.171875 4.75 -1.546875 L 5.40625 -0.796875 C 5.175781 -0.503906 4.878906 -0.285156 4.515625 -0.140625 C 4.148438 -0.00390625 3.738281 0.0625 3.28125 0.0625 C 2.707031 0.0625 2.195312 -0.0507812 1.75 -0.28125 C 1.3125 -0.507812 0.972656 -0.828125 0.734375 -1.234375 C 0.492188 -1.648438 0.375 -2.117188 0.375 -2.640625 C 0.375 -3.148438 0.488281 -3.609375 0.71875 -4.015625 C 0.957031 -4.429688 1.285156 -4.753906 1.703125 -4.984375 C 2.117188 -5.210938 2.582031 -5.328125 3.09375 -5.328125 C 3.613281 -5.328125 4.070312 -5.210938 4.46875 -4.984375 C 4.875 -4.765625 5.191406 -4.445312 5.421875 -4.03125 C 5.648438 -3.625 5.765625 -3.148438 5.765625 -2.609375 Z M 3.09375 -4.34375 C 2.707031 -4.34375 2.375 -4.222656 2.09375 -3.984375 C 1.820312 -3.753906 1.65625 -3.445312 1.59375 -3.0625 L 4.59375 -3.0625 C 4.539062 -3.445312 4.378906 -3.753906 4.109375 -3.984375 C 3.835938 -4.222656 3.5 -4.34375 3.09375 -4.34375 Z M 3.09375 -4.34375 "/></g></g></g><g fill="#2dabe3" fill-opacity="0.4"><g transform="translate(18.563399, 35.489579)"><g><path d="M 2.828125 -5.328125 C 3.597656 -5.328125 4.1875 -5.140625 4.59375 -4.765625 C 5.007812 -4.398438 5.21875 -3.84375 5.21875 -3.09375 L 5.21875 0 L 4.0625 0 L 4.0625 -0.640625 C 3.90625 -0.410156 3.6875 -0.234375 3.40625 -0.109375 C 3.125 0.00390625 2.789062 0.0625 2.40625 0.0625 C 2.007812 0.0625 1.660156 0 1.359375 -0.125 C 1.066406 -0.257812 0.835938 -0.445312 0.671875 -0.6875 C 0.515625 -0.9375 0.4375 -1.210938 0.4375 -1.515625 C 0.4375 -1.984375 0.609375 -2.359375 0.953125 -2.640625 C 1.304688 -2.929688 1.863281 -3.078125 2.625 -3.078125 L 3.984375 -3.078125 L 3.984375 -3.15625 C 3.984375 -3.53125 3.875 -3.816406 3.65625 -4.015625 C 3.4375 -4.210938 3.109375 -4.3125 2.671875 -4.3125 C 2.378906 -4.3125 2.085938 -4.265625 1.796875 -4.171875 C 1.515625 -4.078125 1.273438 -3.945312 1.078125 -3.78125 L 0.59375 -4.6875 C 0.863281 -4.894531 1.191406 -5.050781 1.578125 -5.15625 C 1.972656 -5.269531 2.390625 -5.328125 2.828125 -5.328125 Z M 2.65625 -0.828125 C 2.96875 -0.828125 3.242188 -0.894531 3.484375 -1.03125 C 3.722656 -1.175781 3.890625 -1.382812 3.984375 -1.65625 L 3.984375 -2.265625 L 2.71875 -2.265625 C 2.007812 -2.265625 1.65625 -2.03125 1.65625 -1.5625 C 1.65625 -1.332031 1.742188 -1.148438 1.921875 -1.015625 C 2.097656 -0.890625 2.34375 -0.828125 2.65625 -0.828125 Z M 2.65625 -0.828125 "/></g></g></g><g fill="#2dabe3" fill-opacity="0.4"><g transform="translate(24.55298, 35.489579)"><g><path d="M 3.984375 -0.28125 C 3.835938 -0.164062 3.660156 -0.078125 3.453125 -0.015625 C 3.242188 0.0351562 3.023438 0.0625 2.796875 0.0625 C 2.210938 0.0625 1.765625 -0.0859375 1.453125 -0.390625 C 1.140625 -0.691406 0.984375 -1.128906 0.984375 -1.703125 L 0.984375 -4.25 L 0.109375 -4.25 L 0.109375 -5.234375 L 0.984375 -5.234375 L 0.984375 -6.4375 L 2.21875 -6.4375 L 2.21875 -5.234375 L 3.625 -5.234375 L 3.625 -4.25 L 2.21875 -4.25 L 2.21875 -1.734375 C 2.21875 -1.484375 2.28125 -1.289062 2.40625 -1.15625 C 2.53125 -1.019531 2.707031 -0.953125 2.9375 -0.953125 C 3.21875 -0.953125 3.453125 -1.023438 3.640625 -1.171875 Z M 3.984375 -0.28125 "/></g></g></g><g fill="#2dabe3" fill-opacity="0.4"><g transform="translate(28.736807, 35.489579)"><g><path d="M 3.796875 -5.328125 C 4.460938 -5.328125 4.992188 -5.132812 5.390625 -4.75 C 5.796875 -4.363281 6 -3.785156 6 -3.015625 L 6 0 L 4.765625 0 L 4.765625 -2.859375 C 4.765625 -3.328125 4.65625 -3.675781 4.4375 -3.90625 C 4.226562 -4.132812 3.921875 -4.25 3.515625 -4.25 C 3.054688 -4.25 2.695312 -4.113281 2.4375 -3.84375 C 2.175781 -3.570312 2.046875 -3.179688 2.046875 -2.671875 L 2.046875 0 L 0.8125 0 L 0.8125 -7.328125 L 2.046875 -7.328125 L 2.046875 -4.65625 C 2.242188 -4.875 2.492188 -5.039062 2.796875 -5.15625 C 3.097656 -5.269531 3.429688 -5.328125 3.796875 -5.328125 Z M 3.796875 -5.328125 "/></g></g></g><g fill="#2dabe3" fill-opacity="0.4"><g transform="translate(35.496052, 35.489579)"><g><path d="M 5.765625 -2.609375 C 5.765625 -2.523438 5.757812 -2.398438 5.75 -2.234375 L 1.609375 -2.234375 C 1.679688 -1.847656 1.867188 -1.539062 2.171875 -1.3125 C 2.484375 -1.09375 2.863281 -0.984375 3.3125 -0.984375 C 3.894531 -0.984375 4.375 -1.171875 4.75 -1.546875 L 5.40625 -0.796875 C 5.175781 -0.503906 4.878906 -0.285156 4.515625 -0.140625 C 4.148438 -0.00390625 3.738281 0.0625 3.28125 0.0625 C 2.707031 0.0625 2.195312 -0.0507812 1.75 -0.28125 C 1.3125 -0.507812 0.972656 -0.828125 0.734375 -1.234375 C 0.492188 -1.648438 0.375 -2.117188 0.375 -2.640625 C 0.375 -3.148438 0.488281 -3.609375 0.71875 -4.015625 C 0.957031 -4.429688 1.285156 -4.753906 1.703125 -4.984375 C 2.117188 -5.210938 2.582031 -5.328125 3.09375 -5.328125 C 3.613281 -5.328125 4.070312 -5.210938 4.46875 -4.984375 C 4.875 -4.765625 5.191406 -4.445312 5.421875 -4.03125 C 5.648438 -3.625 5.765625 -3.148438 5.765625 -2.609375 Z M 3.09375 -4.34375 C 2.707031 -4.34375 2.375 -4.222656 2.09375 -3.984375 C 1.820312 -3.753906 1.65625 -3.445312 1.59375 -3.0625 L 4.59375 -3.0625 C 4.539062 -3.445312 4.378906 -3.753906 4.109375 -3.984375 C 3.835938 -4.222656 3.5 -4.34375 3.09375 -4.34375 Z M 3.09375 -4.34375 "/></g></g></g><g fill="#2dabe3" fill-opacity="0.4"><g transform="translate(41.633643, 35.489579)"><g><path d="M 1.984375 -4.5 C 2.335938 -5.050781 2.960938 -5.328125 3.859375 -5.328125 L 3.859375 -4.15625 C 3.753906 -4.175781 3.660156 -4.1875 3.578125 -4.1875 C 3.097656 -4.1875 2.722656 -4.046875 2.453125 -3.765625 C 2.179688 -3.484375 2.046875 -3.082031 2.046875 -2.5625 L 2.046875 0 L 0.8125 0 L 0.8125 -5.265625 L 1.984375 -5.265625 Z M 1.984375 -4.5 "/></g></g></g><g fill="#2dabe3" fill-opacity="0.4"><g transform="translate(45.777997, 35.489579)"><g/></g></g><g fill="#2dabe3" fill-opacity="0.4"><g transform="translate(48.501429, 35.489579)"><g><path d="M 11.03125 -6.90625 L 8.734375 0 L 7.375 0 L 5.671875 -5.109375 L 3.9375 0 L 2.5625 0 L 0.265625 -6.90625 L 1.59375 -6.90625 L 3.3125 -1.65625 L 5.109375 -6.90625 L 6.296875 -6.90625 L 8.03125 -1.625 L 9.8125 -6.90625 Z M 11.03125 -6.90625 "/></g></g></g><g fill="#2dabe3" fill-opacity="0.4"><g transform="translate(59.789864, 35.489579)"><g><path d="M 0.8125 -5.265625 L 2.046875 -5.265625 L 2.046875 0 L 0.8125 0 Z M 1.421875 -6.140625 C 1.203125 -6.140625 1.015625 -6.207031 0.859375 -6.34375 C 0.710938 -6.488281 0.640625 -6.671875 0.640625 -6.890625 C 0.640625 -7.097656 0.710938 -7.269531 0.859375 -7.40625 C 1.015625 -7.550781 1.203125 -7.625 1.421875 -7.625 C 1.648438 -7.625 1.835938 -7.554688 1.984375 -7.421875 C 2.140625 -7.285156 2.21875 -7.113281 2.21875 -6.90625 C 2.21875 -6.695312 2.144531 -6.515625 2 -6.359375 C 1.851562 -6.210938 1.660156 -6.140625 1.421875 -6.140625 Z M 1.421875 -6.140625 "/></g></g></g><g fill="#2dabe3" fill-opacity="0.4"><g transform="translate(62.641574, 35.489579)"><g><path d="M 2.4375 0.0625 C 2.007812 0.0625 1.59375 0.0078125 1.1875 -0.09375 C 0.78125 -0.207031 0.453125 -0.347656 0.203125 -0.515625 L 0.6875 -1.46875 C 0.914062 -1.300781 1.195312 -1.171875 1.53125 -1.078125 C 1.863281 -0.984375 2.191406 -0.9375 2.515625 -0.9375 C 3.253906 -0.9375 3.625 -1.128906 3.625 -1.515625 C 3.625 -1.703125 3.53125 -1.832031 3.34375 -1.90625 C 3.15625 -1.976562 2.851562 -2.046875 2.4375 -2.109375 C 2 -2.179688 1.644531 -2.257812 1.375 -2.34375 C 1.101562 -2.425781 0.863281 -2.570312 0.65625 -2.78125 C 0.457031 -3 0.359375 -3.300781 0.359375 -3.6875 C 0.359375 -4.1875 0.566406 -4.582031 0.984375 -4.875 C 1.410156 -5.175781 1.976562 -5.328125 2.6875 -5.328125 C 3.050781 -5.328125 3.410156 -5.285156 3.765625 -5.203125 C 4.128906 -5.117188 4.425781 -5.007812 4.65625 -4.875 L 4.1875 -3.9375 C 3.738281 -4.195312 3.234375 -4.328125 2.671875 -4.328125 C 2.316406 -4.328125 2.039062 -4.273438 1.84375 -4.171875 C 1.65625 -4.066406 1.5625 -3.925781 1.5625 -3.75 C 1.5625 -3.550781 1.660156 -3.410156 1.859375 -3.328125 C 2.066406 -3.242188 2.378906 -3.164062 2.796875 -3.09375 C 3.222656 -3.019531 3.570312 -2.941406 3.84375 -2.859375 C 4.113281 -2.773438 4.34375 -2.628906 4.53125 -2.421875 C 4.726562 -2.222656 4.828125 -1.9375 4.828125 -1.5625 C 4.828125 -1.0625 4.613281 -0.664062 4.1875 -0.375 C 3.757812 -0.0820312 3.175781 0.0625 2.4375 0.0625 Z M 2.4375 0.0625 "/></g></g></g><g fill="#2dabe3" fill-opacity="0.4"><g transform="translate(67.723339, 35.489579)"><g><path d="M 5.765625 -2.609375 C 5.765625 -2.523438 5.757812 -2.398438 5.75 -2.234375 L 1.609375 -2.234375 C 1.679688 -1.847656 1.867188 -1.539062 2.171875 -1.3125 C 2.484375 -1.09375 2.863281 -0.984375 3.3125 -0.984375 C 3.894531 -0.984375 4.375 -1.171875 4.75 -1.546875 L 5.40625 -0.796875 C 5.175781 -0.503906 4.878906 -0.285156 4.515625 -0.140625 C 4.148438 -0.00390625 3.738281 0.0625 3.28125 0.0625 C 2.707031 0.0625 2.195312 -0.0507812 1.75 -0.28125 C 1.3125 -0.507812 0.972656 -0.828125 0.734375 -1.234375 C 0.492188 -1.648438 0.375 -2.117188 0.375 -2.640625 C 0.375 -3.148438 0.488281 -3.609375 0.71875 -4.015625 C 0.957031 -4.429688 1.285156 -4.753906 1.703125 -4.984375 C 2.117188 -5.210938 2.582031 -5.328125 3.09375 -5.328125 C 3.613281 -5.328125 4.070312 -5.210938 4.46875 -4.984375 C 4.875 -4.765625 5.191406 -4.445312 5.421875 -4.03125 C 5.648438 -3.625 5.765625 -3.148438 5.765625 -2.609375 Z M 3.09375 -4.34375 C 2.707031 -4.34375 2.375 -4.222656 2.09375 -3.984375 C 1.820312 -3.753906 1.65625 -3.445312 1.59375 -3.0625 L 4.59375 -3.0625 C 4.539062 -3.445312 4.378906 -3.753906 4.109375 -3.984375 C 3.835938 -4.222656 3.5 -4.34375 3.09375 -4.34375 Z M 3.09375 -4.34375 "/></g></g></g><g fill="#2dabe3" fill-opacity="1"><g transform="translate(1.137373, 35.489579)"><g><path d="M 11.03125 -6.90625 L 8.734375 0 L 7.375 0 L 5.671875 -5.109375 L 3.9375 0 L 2.5625 0 L 0.265625 -6.90625 L 1.59375 -6.90625 L 3.3125 -1.65625 L 5.109375 -6.90625 L 6.296875 -6.90625 L 8.03125 -1.625 L 9.8125 -6.90625 Z M 11.03125 -6.90625 "/></g></g></g><g fill="#2dabe3" fill-opacity="1"><g transform="translate(12.425808, 35.489579)"><g><path d="M 5.765625 -2.609375 C 5.765625 -2.523438 5.757812 -2.398438 5.75 -2.234375 L 1.609375 -2.234375 C 1.679688 -1.847656 1.867188 -1.539062 2.171875 -1.3125 C 2.484375 -1.09375 2.863281 -0.984375 3.3125 -0.984375 C 3.894531 -0.984375 4.375 -1.171875 4.75 -1.546875 L 5.40625 -0.796875 C 5.175781 -0.503906 4.878906 -0.285156 4.515625 -0.140625 C 4.148438 -0.00390625 3.738281 0.0625 3.28125 0.0625 C 2.707031 0.0625 2.195312 -0.0507812 1.75 -0.28125 C 1.3125 -0.507812 0.972656 -0.828125 0.734375 -1.234375 C 0.492188 -1.648438 0.375 -2.117188 0.375 -2.640625 C 0.375 -3.148438 0.488281 -3.609375 0.71875 -4.015625 C 0.957031 -4.429688 1.285156 -4.753906 1.703125 -4.984375 C 2.117188 -5.210938 2.582031 -5.328125 3.09375 -5.328125 C 3.613281 -5.328125 4.070312 -5.210938 4.46875 -4.984375 C 4.875 -4.765625 5.191406 -4.445312 5.421875 -4.03125 C 5.648438 -3.625 5.765625 -3.148438 5.765625 -2.609375 Z M 3.09375 -4.34375 C 2.707031 -4.34375 2.375 -4.222656 2.09375 -3.984375 C 1.820312 -3.753906 1.65625 -3.445312 1.59375 -3.0625 L 4.59375 -3.0625 C 4.539062 -3.445312 4.378906 -3.753906 4.109375 -3.984375 C 3.835938 -4.222656 3.5 -4.34375 3.09375 -4.34375 Z M 3.09375 -4.34375 "/></g></g></g><g fill="#2dabe3" fill-opacity="1"><g transform="translate(18.563399, 35.489579)"><g><path d="M 2.828125 -5.328125 C 3.597656 -5.328125 4.1875 -5.140625 4.59375 -4.765625 C 5.007812 -4.398438 5.21875 -3.84375 5.21875 -3.09375 L 5.21875 0 L 4.0625 0 L 4.0625 -0.640625 C 3.90625 -0.410156 3.6875 -0.234375 3.40625 -0.109375 C 3.125 0.00390625 2.789062 0.0625 2.40625 0.0625 C 2.007812 0.0625 1.660156 0 1.359375 -0.125 C 1.066406 -0.257812 0.835938 -0.445312 0.671875 -0.6875 C 0.515625 -0.9375 0.4375 -1.210938 0.4375 -1.515625 C 0.4375 -1.984375 0.609375 -2.359375 0.953125 -2.640625 C 1.304688 -2.929688 1.863281 -3.078125 2.625 -3.078125 L 3.984375 -3.078125 L 3.984375 -3.15625 C 3.984375 -3.53125 3.875 -3.816406 3.65625 -4.015625 C 3.4375 -4.210938 3.109375 -4.3125 2.671875 -4.3125 C 2.378906 -4.3125 2.085938 -4.265625 1.796875 -4.171875 C 1.515625 -4.078125 1.273438 -3.945312 1.078125 -3.78125 L 0.59375 -4.6875 C 0.863281 -4.894531 1.191406 -5.050781 1.578125 -5.15625 C 1.972656 -5.269531 2.390625 -5.328125 2.828125 -5.328125 Z M 2.65625 -0.828125 C 2.96875 -0.828125 3.242188 -0.894531 3.484375 -1.03125 C 3.722656 -1.175781 3.890625 -1.382812 3.984375 -1.65625 L 3.984375 -2.265625 L 2.71875 -2.265625 C 2.007812 -2.265625 1.65625 -2.03125 1.65625 -1.5625 C 1.65625 -1.332031 1.742188 -1.148438 1.921875 -1.015625 C 2.097656 -0.890625 2.34375 -0.828125 2.65625 -0.828125 Z M 2.65625 -0.828125 "/></g></g></g><g fill="#2dabe3" fill-opacity="1"><g transform="translate(24.55298, 35.489579)"><g><path d="M 3.984375 -0.28125 C 3.835938 -0.164062 3.660156 -0.078125 3.453125 -0.015625 C 3.242188 0.0351562 3.023438 0.0625 2.796875 0.0625 C 2.210938 0.0625 1.765625 -0.0859375 1.453125 -0.390625 C 1.140625 -0.691406 0.984375 -1.128906 0.984375 -1.703125 L 0.984375 -4.25 L 0.109375 -4.25 L 0.109375 -5.234375 L 0.984375 -5.234375 L 0.984375 -6.4375 L 2.21875 -6.4375 L 2.21875 -5.234375 L 3.625 -5.234375 L 3.625 -4.25 L 2.21875 -4.25 L 2.21875 -1.734375 C 2.21875 -1.484375 2.28125 -1.289062 2.40625 -1.15625 C 2.53125 -1.019531 2.707031 -0.953125 2.9375 -0.953125 C 3.21875 -0.953125 3.453125 -1.023438 3.640625 -1.171875 Z M 3.984375 -0.28125 "/></g></g></g><g fill="#2dabe3" fill-opacity="1"><g transform="translate(28.736807, 35.489579)"><g><path d="M 3.796875 -5.328125 C 4.460938 -5.328125 4.992188 -5.132812 5.390625 -4.75 C 5.796875 -4.363281 6 -3.785156 6 -3.015625 L 6 0 L 4.765625 0 L 4.765625 -2.859375 C 4.765625 -3.328125 4.65625 -3.675781 4.4375 -3.90625 C 4.226562 -4.132812 3.921875 -4.25 3.515625 -4.25 C 3.054688 -4.25 2.695312 -4.113281 2.4375 -3.84375 C 2.175781 -3.570312 2.046875 -3.179688 2.046875 -2.671875 L 2.046875 0 L 0.8125 0 L 0.8125 -7.328125 L 2.046875 -7.328125 L 2.046875 -4.65625 C 2.242188 -4.875 2.492188 -5.039062 2.796875 -5.15625 C 3.097656 -5.269531 3.429688 -5.328125 3.796875 -5.328125 Z M 3.796875 -5.328125 "/></g></g></g><g fill="#2dabe3" fill-opacity="1"><g transform="translate(35.496052, 35.489579)"><g><path d="M 5.765625 -2.609375 C 5.765625 -2.523438 5.757812 -2.398438 5.75 -2.234375 L 1.609375 -2.234375 C 1.679688 -1.847656 1.867188 -1.539062 2.171875 -1.3125 C 2.484375 -1.09375 2.863281 -0.984375 3.3125 -0.984375 C 3.894531 -0.984375 4.375 -1.171875 4.75 -1.546875 L 5.40625 -0.796875 C 5.175781 -0.503906 4.878906 -0.285156 4.515625 -0.140625 C 4.148438 -0.00390625 3.738281 0.0625 3.28125 0.0625 C 2.707031 0.0625 2.195312 -0.0507812 1.75 -0.28125 C 1.3125 -0.507812 0.972656 -0.828125 0.734375 -1.234375 C 0.492188 -1.648438 0.375 -2.117188 0.375 -2.640625 C 0.375 -3.148438 0.488281 -3.609375 0.71875 -4.015625 C 0.957031 -4.429688 1.285156 -4.753906 1.703125 -4.984375 C 2.117188 -5.210938 2.582031 -5.328125 3.09375 -5.328125 C 3.613281 -5.328125 4.070312 -5.210938 4.46875 -4.984375 C 4.875 -4.765625 5.191406 -4.445312 5.421875 -4.03125 C 5.648438 -3.625 5.765625 -3.148438 5.765625 -2.609375 Z M 3.09375 -4.34375 C 2.707031 -4.34375 2.375 -4.222656 2.09375 -3.984375 C 1.820312 -3.753906 1.65625 -3.445312 1.59375 -3.0625 L 4.59375 -3.0625 C 4.539062 -3.445312 4.378906 -3.753906 4.109375 -3.984375 C 3.835938 -4.222656 3.5 -4.34375 3.09375 -4.34375 Z M 3.09375 -4.34375 "/></g></g></g><g fill="#2dabe3" fill-opacity="1"><g transform="translate(41.633643, 35.489579)"><g><path d="M 1.984375 -4.5 C 2.335938 -5.050781 2.960938 -5.328125 3.859375 -5.328125 L 3.859375 -4.15625 C 3.753906 -4.175781 3.660156 -4.1875 3.578125 -4.1875 C 3.097656 -4.1875 2.722656 -4.046875 2.453125 -3.765625 C 2.179688 -3.484375 2.046875 -3.082031 2.046875 -2.5625 L 2.046875 0 L 0.8125 0 L 0.8125 -5.265625 L 1.984375 -5.265625 Z M 1.984375 -4.5 "/></g></g></g><g fill="#2dabe3" fill-opacity="1"><g transform="translate(45.777997, 35.489579)"><g/></g></g><g fill="#2dabe3" fill-opacity="1"><g transform="translate(48.501429, 35.489579)"><g><path d="M 11.03125 -6.90625 L 8.734375 0 L 7.375 0 L 5.671875 -5.109375 L 3.9375 0 L 2.5625 0 L 0.265625 -6.90625 L 1.59375 -6.90625 L 3.3125 -1.65625 L 5.109375 -6.90625 L 6.296875 -6.90625 L 8.03125 -1.625 L 9.8125 -6.90625 Z M 11.03125 -6.90625 "/></g></g></g><g fill="#2dabe3" fill-opacity="1"><g transform="translate(59.789864, 35.489579)"><g><path d="M 0.8125 -5.265625 L 2.046875 -5.265625 L 2.046875 0 L 0.8125 0 Z M 1.421875 -6.140625 C 1.203125 -6.140625 1.015625 -6.207031 0.859375 -6.34375 C 0.710938 -6.488281 0.640625 -6.671875 0.640625 -6.890625 C 0.640625 -7.097656 0.710938 -7.269531 0.859375 -7.40625 C 1.015625 -7.550781 1.203125 -7.625 1.421875 -7.625 C 1.648438 -7.625 1.835938 -7.554688 1.984375 -7.421875 C 2.140625 -7.285156 2.21875 -7.113281 2.21875 -6.90625 C 2.21875 -6.695312 2.144531 -6.515625 2 -6.359375 C 1.851562 -6.210938 1.660156 -6.140625 1.421875 -6.140625 Z M 1.421875 -6.140625 "/></g></g></g><g fill="#2dabe3" fill-opacity="1"><g transform="translate(62.641574, 35.489579)"><g><path d="M 2.4375 0.0625 C 2.007812 0.0625 1.59375 0.0078125 1.1875 -0.09375 C 0.78125 -0.207031 0.453125 -0.347656 0.203125 -0.515625 L 0.6875 -1.46875 C 0.914062 -1.300781 1.195312 -1.171875 1.53125 -1.078125 C 1.863281 -0.984375 2.191406 -0.9375 2.515625 -0.9375 C 3.253906 -0.9375 3.625 -1.128906 3.625 -1.515625 C 3.625 -1.703125 3.53125 -1.832031 3.34375 -1.90625 C 3.15625 -1.976562 2.851562 -2.046875 2.4375 -2.109375 C 2 -2.179688 1.644531 -2.257812 1.375 -2.34375 C 1.101562 -2.425781 0.863281 -2.570312 0.65625 -2.78125 C 0.457031 -3 0.359375 -3.300781 0.359375 -3.6875 C 0.359375 -4.1875 0.566406 -4.582031 0.984375 -4.875 C 1.410156 -5.175781 1.976562 -5.328125 2.6875 -5.328125 C 3.050781 -5.328125 3.410156 -5.285156 3.765625 -5.203125 C 4.128906 -5.117188 4.425781 -5.007812 4.65625 -4.875 L 4.1875 -3.9375 C 3.738281 -4.195312 3.234375 -4.328125 2.671875 -4.328125 C 2.316406 -4.328125 2.039062 -4.273438 1.84375 -4.171875 C 1.65625 -4.066406 1.5625 -3.925781 1.5625 -3.75 C 1.5625 -3.550781 1.660156 -3.410156 1.859375 -3.328125 C 2.066406 -3.242188 2.378906 -3.164062 2.796875 -3.09375 C 3.222656 -3.019531 3.570312 -2.941406 3.84375 -2.859375 C 4.113281 -2.773438 4.34375 -2.628906 4.53125 -2.421875 C 4.726562 -2.222656 4.828125 -1.9375 4.828125 -1.5625 C 4.828125 -1.0625 4.613281 -0.664062 4.1875 -0.375 C 3.757812 -0.0820312 3.175781 0.0625 2.4375 0.0625 Z M 2.4375 0.0625 "/></g></g></g><g fill="#2dabe3" fill-opacity="1"><g transform="translate(67.723339, 35.489579)"><g><path d="M 5.765625 -2.609375 C 5.765625 -2.523438 5.757812 -2.398438 5.75 -2.234375 L 1.609375 -2.234375 C 1.679688 -1.847656 1.867188 -1.539062 2.171875 -1.3125 C 2.484375 -1.09375 2.863281 -0.984375 3.3125 -0.984375 C 3.894531 -0.984375 4.375 -1.171875 4.75 -1.546875 L 5.40625 -0.796875 C 5.175781 -0.503906 4.878906 -0.285156 4.515625 -0.140625 C 4.148438 -0.00390625 3.738281 0.0625 3.28125 0.0625 C 2.707031 0.0625 2.195312 -0.0507812 1.75 -0.28125 C 1.3125 -0.507812 0.972656 -0.828125 0.734375 -1.234375 C 0.492188 -1.648438 0.375 -2.117188 0.375 -2.640625 C 0.375 -3.148438 0.488281 -3.609375 0.71875 -4.015625 C 0.957031 -4.429688 1.285156 -4.753906 1.703125 -4.984375 C 2.117188 -5.210938 2.582031 -5.328125 3.09375 -5.328125 C 3.613281 -5.328125 4.070312 -5.210938 4.46875 -4.984375 C 4.875 -4.765625 5.191406 -4.445312 5.421875 -4.03125 C 5.648438 -3.625 5.765625 -3.148438 5.765625 -2.609375 Z M 3.09375 -4.34375 C 2.707031 -4.34375 2.375 -4.222656 2.09375 -3.984375 C 1.820312 -3.753906 1.65625 -3.445312 1.59375 -3.0625 L 4.59375 -3.0625 C 4.539062 -3.445312 4.378906 -3.753906 4.109375 -3.984375 C 3.835938 -4.222656 3.5 -4.34375 3.09375 -4.34375 Z M 3.09375 -4.34375 "/></g></g></g></svg>