<svg xmlns="http://www.w3.org/2000/svg" xmlns:xlink="http://www.w3.org/1999/xlink" width="1000" zoomAndPan="magnify" viewBox="0 0 750 142.499996" height="190" preserveAspectRatio="xMidYMid meet" version="1.0"><defs><g/><clipPath id="db5ba74824"><path d="M 1.3125 71 L 22 71 L 22 78 L 1.3125 78 Z M 1.3125 71 " clip-rule="nonzero"/></clipPath><clipPath id="b3a74bd87a"><path d="M 31 121 L 45 121 L 45 140.578125 L 31 140.578125 Z M 31 121 " clip-rule="nonzero"/></clipPath></defs><path fill="#2dabe3" d="M 61.226562 31.1875 C 64.644531 27.230469 67.589844 22.699219 71.5625 19.410156 C 94.003906 0.828125 126.328125 8.121094 139.203125 34.308594 C 140.152344 36.238281 141.878906 38.242188 143.753906 39.171875 C 163.433594 48.925781 173.164062 67.761719 169.027344 88.578125 C 165.164062 108.023438 148.492188 122.132812 127.355469 123.222656 C 119.011719 123.652344 110.542969 123.597656 102.253906 122.660156 C 77.855469 119.894531 61.742188 99.878906 63.511719 75.265625 C 63.910156 69.710938 67.617188 65.820312 72.222656 66.117188 C 76.824219 66.417969 80.007812 70.011719 79.351562 75.84375 C 77.542969 91.917969 89.75 108.335938 110.859375 107.332031 C 117.546875 107.011719 124.332031 107.476562 130.914062 106.5 C 144.050781 104.554688 153.535156 93.441406 154.054688 80.417969 C 154.558594 67.683594 145.617188 55.65625 132.773438 52.730469 C 128.503906 51.757812 127.0625 49.800781 126.054688 45.75 C 121.785156 28.578125 102.375 19.960938 86.960938 28.484375 C 82.769531 30.796875 78.792969 31.796875 74.140625 31.605469 C 70.183594 31.4375 66.203125 31.949219 62.230469 32.15625 C 61.894531 31.832031 61.5625 31.507812 61.226562 31.1875 Z M 61.226562 31.1875 " fill-opacity="1" fill-rule="nonzero"/><path fill="#fbc927" d="M 82.777344 121.648438 C 55.933594 129.070312 28.714844 106.394531 29.890625 78.148438 C 30.859375 54.910156 48.464844 36.730469 71.019531 35.679688 C 93.613281 34.625 113.148438 50.820312 116.4375 73.652344 C 117.027344 77.753906 116.835938 82.09375 116.242188 86.210938 C 115.484375 91.5 111.894531 93.902344 107 93.253906 C 102.730469 92.691406 100.28125 89.792969 100.671875 84.535156 C 101.425781 74.363281 99.179688 65.351562 91.203125 58.597656 C 82.304688 51.066406 72.167969 49.484375 61.613281 54.484375 C 51.503906 59.277344 45.960938 67.699219 45.867188 78.976562 C 45.769531 90.617188 51.324219 99.035156 61.65625 104.550781 C 65.347656 106.523438 68.503906 109.535156 71.789062 112.21875 C 75.402344 115.171875 78.878906 118.292969 82.777344 121.648438 Z M 82.777344 121.648438 " fill-opacity="1" fill-rule="nonzero"/><g clip-path="url(#db5ba74824)"><path fill="#fbc927" d="M 11.382812 76.953125 C 9.054688 76.953125 6.679688 77.238281 4.425781 76.832031 C 3.289062 76.628906 2.371094 75.175781 1.355469 74.289062 C 2.199219 73.375 3.003906 71.714844 3.886719 71.671875 C 9.007812 71.421875 14.15625 71.390625 19.273438 71.6875 C 20.167969 71.742188 20.957031 73.683594 21.789062 74.753906 C 20.8125 75.488281 19.902344 76.71875 18.847656 76.851562 C 16.394531 77.167969 13.875 76.953125 11.382812 76.953125 Z M 11.382812 76.953125 " fill-opacity="1" fill-rule="nonzero"/></g><g clip-path="url(#b3a74bd87a)"><path fill="#fbc927" d="M 33.328125 140.597656 C 32.675781 138.957031 31.273438 137.136719 31.714844 136.253906 C 34.117188 131.464844 36.894531 126.855469 39.769531 122.328125 C 40.179688 121.683594 42.054688 121.355469 42.824219 121.738281 C 43.5625 122.113281 44.390625 123.929688 44.078125 124.542969 C 41.5625 129.457031 38.808594 134.25 36.046875 139.027344 C 35.761719 139.519531 34.941406 139.691406 33.328125 140.597656 Z M 33.328125 140.597656 " fill-opacity="1" fill-rule="nonzero"/></g><path fill="#fbc927" d="M 53.679688 29.128906 C 52.929688 30.394531 52.609375 31.664062 51.929688 31.890625 C 51.015625 32.203125 49.234375 32.101562 48.859375 31.507812 C 45.921875 26.886719 43.148438 22.152344 40.558594 17.324219 C 40.191406 16.636719 40.777344 14.875 41.476562 14.328125 C 42.117188 13.828125 44.125 13.894531 44.476562 14.417969 C 47.675781 19.230469 50.640625 24.195312 53.679688 29.128906 Z M 53.679688 29.128906 " fill-opacity="1" fill-rule="nonzero"/><path fill="#fbc927" d="M 26.417969 100.921875 C 26.378906 104.824219 11.554688 113.578125 9.609375 111.832031 C 8.847656 111.152344 8.878906 108 9.597656 107.503906 C 13.71875 104.664062 18.066406 102.117188 22.542969 99.882812 C 23.523438 99.398438 25.339844 100.601562 26.417969 100.921875 Z M 26.417969 100.921875 " fill-opacity="1" fill-rule="nonzero"/><path fill="#fbc927" d="M 32.261719 48.933594 C 30.433594 49.398438 28.597656 50.519531 27.570312 50.007812 C 23.105469 47.777344 18.808594 45.179688 14.625 42.441406 C 13.882812 41.957031 13.550781 40.050781 13.839844 39.03125 C 14.019531 38.398438 16.050781 37.5625 16.679688 37.898438 C 21.511719 40.484375 26.210938 43.304688 30.90625 46.140625 C 31.367188 46.425781 31.484375 47.285156 32.261719 48.933594 Z M 32.261719 48.933594 " fill-opacity="1" fill-rule="nonzero"/><g fill="#2dabe3" fill-opacity="0.4"><g transform="translate(183.647215, 97.705701)"><g><path d="M 85.171875 -53.375 L 67.484375 0 L 56.953125 0 L 43.765625 -39.5 L 30.34375 0 L 19.75 0 L 2.0625 -53.375 L 12.359375 -53.375 L 25.625 -12.8125 L 39.421875 -53.375 L 48.578125 -53.375 L 62.0625 -12.578125 L 75.71875 -53.375 Z M 85.171875 -53.375 "/></g></g></g><g fill="#2dabe3" fill-opacity="0.4"><g transform="translate(270.854042, 97.705701)"><g><path d="M 44.53125 -20.125 C 44.53125 -19.46875 44.476562 -18.53125 44.375 -17.3125 L 12.421875 -17.3125 C 12.984375 -14.3125 14.445312 -11.929688 16.8125 -10.171875 C 19.175781 -8.421875 22.113281 -7.546875 25.625 -7.546875 C 30.09375 -7.546875 33.773438 -9.019531 36.671875 -11.96875 L 41.78125 -6.09375 C 39.957031 -3.914062 37.644531 -2.265625 34.84375 -1.140625 C 32.050781 -0.0234375 28.898438 0.53125 25.390625 0.53125 C 20.921875 0.53125 16.984375 -0.351562 13.578125 -2.125 C 10.171875 -3.90625 7.535156 -6.382812 5.671875 -9.5625 C 3.816406 -12.738281 2.890625 -16.335938 2.890625 -20.359375 C 2.890625 -24.328125 3.789062 -27.898438 5.59375 -31.078125 C 7.40625 -34.253906 9.910156 -36.726562 13.109375 -38.5 C 16.316406 -40.28125 19.925781 -41.171875 23.9375 -41.171875 C 27.90625 -41.171875 31.453125 -40.289062 34.578125 -38.53125 C 37.703125 -36.78125 40.140625 -34.316406 41.890625 -31.140625 C 43.648438 -27.960938 44.53125 -24.289062 44.53125 -20.125 Z M 23.9375 -33.546875 C 20.894531 -33.546875 18.316406 -32.644531 16.203125 -30.84375 C 14.085938 -29.039062 12.804688 -26.640625 12.359375 -23.640625 L 35.453125 -23.640625 C 35.046875 -26.585938 33.800781 -28.972656 31.71875 -30.796875 C 29.632812 -32.628906 27.039062 -33.546875 23.9375 -33.546875 Z M 23.9375 -33.546875 "/></g></g></g><g fill="#2dabe3" fill-opacity="0.4"><g transform="translate(318.268924, 97.705701)"><g><path d="M 21.8125 -41.171875 C 27.8125 -41.171875 32.398438 -39.734375 35.578125 -36.859375 C 38.753906 -33.992188 40.34375 -29.660156 40.34375 -23.859375 L 40.34375 0 L 31.34375 0 L 31.34375 -4.953125 C 30.164062 -3.171875 28.5 -1.8125 26.34375 -0.875 C 24.1875 0.0625 21.582031 0.53125 18.53125 0.53125 C 15.476562 0.53125 12.804688 0.0078125 10.515625 -1.03125 C 8.234375 -2.070312 6.46875 -3.519531 5.21875 -5.375 C 3.976562 -7.226562 3.359375 -9.328125 3.359375 -11.671875 C 3.359375 -15.328125 4.71875 -18.257812 7.4375 -20.46875 C 10.15625 -22.6875 14.4375 -23.796875 20.28125 -23.796875 L 30.8125 -23.796875 L 30.8125 -24.40625 C 30.8125 -27.25 29.957031 -29.429688 28.25 -30.953125 C 26.550781 -32.484375 24.019531 -33.25 20.65625 -33.25 C 18.375 -33.25 16.125 -32.890625 13.90625 -32.171875 C 11.695312 -31.460938 9.832031 -30.472656 8.3125 -29.203125 L 4.578125 -36.140625 C 6.710938 -37.765625 9.28125 -39.007812 12.28125 -39.875 C 15.28125 -40.738281 18.457031 -41.171875 21.8125 -41.171875 Z M 20.515625 -6.40625 C 22.898438 -6.40625 25.019531 -6.953125 26.875 -8.046875 C 28.726562 -9.140625 30.039062 -10.703125 30.8125 -12.734375 L 30.8125 -17.46875 L 20.96875 -17.46875 C 15.476562 -17.46875 12.734375 -15.660156 12.734375 -12.046875 C 12.734375 -10.316406 13.414062 -8.941406 14.78125 -7.921875 C 16.15625 -6.910156 18.066406 -6.40625 20.515625 -6.40625 Z M 20.515625 -6.40625 "/></g></g></g><g fill="#2dabe3" fill-opacity="0.4"><g transform="translate(364.54038, 97.705701)"><g><path d="M 30.734375 -2.21875 C 29.609375 -1.300781 28.242188 -0.613281 26.640625 -0.15625 C 25.046875 0.300781 23.359375 0.53125 21.578125 0.53125 C 17.109375 0.53125 13.648438 -0.632812 11.203125 -2.96875 C 8.765625 -5.3125 7.546875 -8.71875 7.546875 -13.1875 L 7.546875 -32.78125 L 0.84375 -32.78125 L 0.84375 -40.40625 L 7.546875 -40.40625 L 7.546875 -49.71875 L 17.078125 -49.71875 L 17.078125 -40.40625 L 27.984375 -40.40625 L 27.984375 -32.78125 L 17.078125 -32.78125 L 17.078125 -13.421875 C 17.078125 -11.441406 17.5625 -9.925781 18.53125 -8.875 C 19.5 -7.832031 20.894531 -7.3125 22.71875 -7.3125 C 24.851562 -7.3125 26.632812 -7.875 28.0625 -9 Z M 30.734375 -2.21875 "/></g></g></g><g fill="#2dabe3" fill-opacity="0.4"><g transform="translate(396.861801, 97.705701)"><g><path d="M 29.359375 -41.171875 C 34.492188 -41.171875 38.609375 -39.671875 41.703125 -36.671875 C 44.804688 -33.671875 46.359375 -29.222656 46.359375 -23.328125 L 46.359375 0 L 36.828125 0 L 36.828125 -22.109375 C 36.828125 -25.671875 35.988281 -28.351562 34.3125 -30.15625 C 32.632812 -31.957031 30.242188 -32.859375 27.140625 -32.859375 C 23.640625 -32.859375 20.867188 -31.800781 18.828125 -29.6875 C 16.796875 -27.582031 15.78125 -24.550781 15.78125 -20.59375 L 15.78125 0 L 6.25 0 L 6.25 -56.578125 L 15.78125 -56.578125 L 15.78125 -35.984375 C 17.351562 -37.660156 19.296875 -38.941406 21.609375 -39.828125 C 23.929688 -40.722656 26.515625 -41.171875 29.359375 -41.171875 Z M 29.359375 -41.171875 "/></g></g></g><g fill="#2dabe3" fill-opacity="0.4"><g transform="translate(449.079164, 97.705701)"><g><path d="M 44.53125 -20.125 C 44.53125 -19.46875 44.476562 -18.53125 44.375 -17.3125 L 12.421875 -17.3125 C 12.984375 -14.3125 14.445312 -11.929688 16.8125 -10.171875 C 19.175781 -8.421875 22.113281 -7.546875 25.625 -7.546875 C 30.09375 -7.546875 33.773438 -9.019531 36.671875 -11.96875 L 41.78125 -6.09375 C 39.957031 -3.914062 37.644531 -2.265625 34.84375 -1.140625 C 32.050781 -0.0234375 28.898438 0.53125 25.390625 0.53125 C 20.921875 0.53125 16.984375 -0.351562 13.578125 -2.125 C 10.171875 -3.90625 7.535156 -6.382812 5.671875 -9.5625 C 3.816406 -12.738281 2.890625 -16.335938 2.890625 -20.359375 C 2.890625 -24.328125 3.789062 -27.898438 5.59375 -31.078125 C 7.40625 -34.253906 9.910156 -36.726562 13.109375 -38.5 C 16.316406 -40.28125 19.925781 -41.171875 23.9375 -41.171875 C 27.90625 -41.171875 31.453125 -40.289062 34.578125 -38.53125 C 37.703125 -36.78125 40.140625 -34.316406 41.890625 -31.140625 C 43.648438 -27.960938 44.53125 -24.289062 44.53125 -20.125 Z M 23.9375 -33.546875 C 20.894531 -33.546875 18.316406 -32.644531 16.203125 -30.84375 C 14.085938 -29.039062 12.804688 -26.640625 12.359375 -23.640625 L 35.453125 -23.640625 C 35.046875 -26.585938 33.800781 -28.972656 31.71875 -30.796875 C 29.632812 -32.628906 27.039062 -33.546875 23.9375 -33.546875 Z M 23.9375 -33.546875 "/></g></g></g><g fill="#2dabe3" fill-opacity="0.4"><g transform="translate(496.494047, 97.705701)"><g><path d="M 15.328125 -34.765625 C 18.066406 -39.035156 22.894531 -41.171875 29.8125 -41.171875 L 29.8125 -32.09375 C 29 -32.25 28.265625 -32.328125 27.609375 -32.328125 C 23.890625 -32.328125 20.988281 -31.242188 18.90625 -29.078125 C 16.820312 -26.921875 15.78125 -23.8125 15.78125 -19.75 L 15.78125 0 L 6.25 0 L 6.25 -40.71875 L 15.328125 -40.71875 Z M 15.328125 -34.765625 "/></g></g></g><g fill="#2dabe3" fill-opacity="0.4"><g transform="translate(528.510526, 97.705701)"><g/></g></g><g fill="#2dabe3" fill-opacity="0.4"><g transform="translate(549.549925, 97.705701)"><g><path d="M 85.171875 -53.375 L 67.484375 0 L 56.953125 0 L 43.765625 -39.5 L 30.34375 0 L 19.75 0 L 2.0625 -53.375 L 12.359375 -53.375 L 25.625 -12.8125 L 39.421875 -53.375 L 48.578125 -53.375 L 62.0625 -12.578125 L 75.71875 -53.375 Z M 85.171875 -53.375 "/></g></g></g><g fill="#2dabe3" fill-opacity="0.4"><g transform="translate(636.756751, 97.705701)"><g><path d="M 6.25 -40.71875 L 15.78125 -40.71875 L 15.78125 0 L 6.25 0 Z M 11.0625 -47.421875 C 9.332031 -47.421875 7.882812 -47.96875 6.71875 -49.0625 C 5.550781 -50.15625 4.96875 -51.515625 4.96875 -53.140625 C 4.96875 -54.773438 5.550781 -56.132812 6.71875 -57.21875 C 7.882812 -58.3125 9.332031 -58.859375 11.0625 -58.859375 C 12.789062 -58.859375 14.238281 -58.335938 15.40625 -57.296875 C 16.570312 -56.253906 17.15625 -54.945312 17.15625 -53.375 C 17.15625 -51.695312 16.582031 -50.285156 15.4375 -49.140625 C 14.300781 -47.992188 12.84375 -47.421875 11.0625 -47.421875 Z M 11.0625 -47.421875 "/></g></g></g><g fill="#2dabe3" fill-opacity="0.4"><g transform="translate(658.787134, 97.705701)"><g><path d="M 18.828125 0.53125 C 15.523438 0.53125 12.296875 0.0976562 9.140625 -0.765625 C 5.992188 -1.628906 3.476562 -2.722656 1.59375 -4.046875 L 5.265625 -11.28125 C 7.085938 -10.0625 9.28125 -9.082031 11.84375 -8.34375 C 14.414062 -7.613281 16.945312 -7.25 19.4375 -7.25 C 25.132812 -7.25 27.984375 -8.75 27.984375 -11.75 C 27.984375 -13.164062 27.257812 -14.15625 25.8125 -14.71875 C 24.363281 -15.28125 22.035156 -15.8125 18.828125 -16.3125 C 15.472656 -16.820312 12.738281 -17.40625 10.625 -18.0625 C 8.519531 -18.726562 6.691406 -19.882812 5.140625 -21.53125 C 3.597656 -23.1875 2.828125 -25.488281 2.828125 -28.4375 C 2.828125 -32.300781 4.4375 -35.390625 7.65625 -37.703125 C 10.882812 -40.015625 15.242188 -41.171875 20.734375 -41.171875 C 23.535156 -41.171875 26.332031 -40.851562 29.125 -40.21875 C 31.925781 -39.582031 34.210938 -38.734375 35.984375 -37.671875 L 32.328125 -30.421875 C 28.867188 -32.453125 24.976562 -33.46875 20.65625 -33.46875 C 17.863281 -33.46875 15.742188 -33.046875 14.296875 -32.203125 C 12.847656 -31.367188 12.125 -30.269531 12.125 -28.90625 C 12.125 -27.375 12.898438 -26.289062 14.453125 -25.65625 C 16.003906 -25.019531 18.40625 -24.421875 21.65625 -23.859375 C 24.90625 -23.359375 27.570312 -22.773438 29.65625 -22.109375 C 31.738281 -21.453125 33.53125 -20.332031 35.03125 -18.75 C 36.53125 -17.175781 37.28125 -14.941406 37.28125 -12.046875 C 37.28125 -8.234375 35.628906 -5.179688 32.328125 -2.890625 C 29.023438 -0.609375 24.523438 0.53125 18.828125 0.53125 Z M 18.828125 0.53125 "/></g></g></g><g fill="#2dabe3" fill-opacity="0.4"><g transform="translate(698.045417, 97.705701)"><g><path d="M 44.53125 -20.125 C 44.53125 -19.46875 44.476562 -18.53125 44.375 -17.3125 L 12.421875 -17.3125 C 12.984375 -14.3125 14.445312 -11.929688 16.8125 -10.171875 C 19.175781 -8.421875 22.113281 -7.546875 25.625 -7.546875 C 30.09375 -7.546875 33.773438 -9.019531 36.671875 -11.96875 L 41.78125 -6.09375 C 39.957031 -3.914062 37.644531 -2.265625 34.84375 -1.140625 C 32.050781 -0.0234375 28.898438 0.53125 25.390625 0.53125 C 20.921875 0.53125 16.984375 -0.351562 13.578125 -2.125 C 10.171875 -3.90625 7.535156 -6.382812 5.671875 -9.5625 C 3.816406 -12.738281 2.890625 -16.335938 2.890625 -20.359375 C 2.890625 -24.328125 3.789062 -27.898438 5.59375 -31.078125 C 7.40625 -34.253906 9.910156 -36.726562 13.109375 -38.5 C 16.316406 -40.28125 19.925781 -41.171875 23.9375 -41.171875 C 27.90625 -41.171875 31.453125 -40.289062 34.578125 -38.53125 C 37.703125 -36.78125 40.140625 -34.316406 41.890625 -31.140625 C 43.648438 -27.960938 44.53125 -24.289062 44.53125 -20.125 Z M 23.9375 -33.546875 C 20.894531 -33.546875 18.316406 -32.644531 16.203125 -30.84375 C 14.085938 -29.039062 12.804688 -26.640625 12.359375 -23.640625 L 35.453125 -23.640625 C 35.046875 -26.585938 33.800781 -28.972656 31.71875 -30.796875 C 29.632812 -32.628906 27.039062 -33.546875 23.9375 -33.546875 Z M 23.9375 -33.546875 "/></g></g></g><g fill="#2dabe3" fill-opacity="1"><g transform="translate(183.647215, 97.705701)"><g><path d="M 85.171875 -53.375 L 67.484375 0 L 56.953125 0 L 43.765625 -39.5 L 30.34375 0 L 19.75 0 L 2.0625 -53.375 L 12.359375 -53.375 L 25.625 -12.8125 L 39.421875 -53.375 L 48.578125 -53.375 L 62.0625 -12.578125 L 75.71875 -53.375 Z M 85.171875 -53.375 "/></g></g></g><g fill="#2dabe3" fill-opacity="1"><g transform="translate(270.854042, 97.705701)"><g><path d="M 44.53125 -20.125 C 44.53125 -19.46875 44.476562 -18.53125 44.375 -17.3125 L 12.421875 -17.3125 C 12.984375 -14.3125 14.445312 -11.929688 16.8125 -10.171875 C 19.175781 -8.421875 22.113281 -7.546875 25.625 -7.546875 C 30.09375 -7.546875 33.773438 -9.019531 36.671875 -11.96875 L 41.78125 -6.09375 C 39.957031 -3.914062 37.644531 -2.265625 34.84375 -1.140625 C 32.050781 -0.0234375 28.898438 0.53125 25.390625 0.53125 C 20.921875 0.53125 16.984375 -0.351562 13.578125 -2.125 C 10.171875 -3.90625 7.535156 -6.382812 5.671875 -9.5625 C 3.816406 -12.738281 2.890625 -16.335938 2.890625 -20.359375 C 2.890625 -24.328125 3.789062 -27.898438 5.59375 -31.078125 C 7.40625 -34.253906 9.910156 -36.726562 13.109375 -38.5 C 16.316406 -40.28125 19.925781 -41.171875 23.9375 -41.171875 C 27.90625 -41.171875 31.453125 -40.289062 34.578125 -38.53125 C 37.703125 -36.78125 40.140625 -34.316406 41.890625 -31.140625 C 43.648438 -27.960938 44.53125 -24.289062 44.53125 -20.125 Z M 23.9375 -33.546875 C 20.894531 -33.546875 18.316406 -32.644531 16.203125 -30.84375 C 14.085938 -29.039062 12.804688 -26.640625 12.359375 -23.640625 L 35.453125 -23.640625 C 35.046875 -26.585938 33.800781 -28.972656 31.71875 -30.796875 C 29.632812 -32.628906 27.039062 -33.546875 23.9375 -33.546875 Z M 23.9375 -33.546875 "/></g></g></g><g fill="#2dabe3" fill-opacity="1"><g transform="translate(318.268924, 97.705701)"><g><path d="M 21.8125 -41.171875 C 27.8125 -41.171875 32.398438 -39.734375 35.578125 -36.859375 C 38.753906 -33.992188 40.34375 -29.660156 40.34375 -23.859375 L 40.34375 0 L 31.34375 0 L 31.34375 -4.953125 C 30.164062 -3.171875 28.5 -1.8125 26.34375 -0.875 C 24.1875 0.0625 21.582031 0.53125 18.53125 0.53125 C 15.476562 0.53125 12.804688 0.0078125 10.515625 -1.03125 C 8.234375 -2.070312 6.46875 -3.519531 5.21875 -5.375 C 3.976562 -7.226562 3.359375 -9.328125 3.359375 -11.671875 C 3.359375 -15.328125 4.71875 -18.257812 7.4375 -20.46875 C 10.15625 -22.6875 14.4375 -23.796875 20.28125 -23.796875 L 30.8125 -23.796875 L 30.8125 -24.40625 C 30.8125 -27.25 29.957031 -29.429688 28.25 -30.953125 C 26.550781 -32.484375 24.019531 -33.25 20.65625 -33.25 C 18.375 -33.25 16.125 -32.890625 13.90625 -32.171875 C 11.695312 -31.460938 9.832031 -30.472656 8.3125 -29.203125 L 4.578125 -36.140625 C 6.710938 -37.765625 9.28125 -39.007812 12.28125 -39.875 C 15.28125 -40.738281 18.457031 -41.171875 21.8125 -41.171875 Z M 20.515625 -6.40625 C 22.898438 -6.40625 25.019531 -6.953125 26.875 -8.046875 C 28.726562 -9.140625 30.039062 -10.703125 30.8125 -12.734375 L 30.8125 -17.46875 L 20.96875 -17.46875 C 15.476562 -17.46875 12.734375 -15.660156 12.734375 -12.046875 C 12.734375 -10.316406 13.414062 -8.941406 14.78125 -7.921875 C 16.15625 -6.910156 18.066406 -6.40625 20.515625 -6.40625 Z M 20.515625 -6.40625 "/></g></g></g><g fill="#2dabe3" fill-opacity="1"><g transform="translate(364.54038, 97.705701)"><g><path d="M 30.734375 -2.21875 C 29.609375 -1.300781 28.242188 -0.613281 26.640625 -0.15625 C 25.046875 0.300781 23.359375 0.53125 21.578125 0.53125 C 17.109375 0.53125 13.648438 -0.632812 11.203125 -2.96875 C 8.765625 -5.3125 7.546875 -8.71875 7.546875 -13.1875 L 7.546875 -32.78125 L 0.84375 -32.78125 L 0.84375 -40.40625 L 7.546875 -40.40625 L 7.546875 -49.71875 L 17.078125 -49.71875 L 17.078125 -40.40625 L 27.984375 -40.40625 L 27.984375 -32.78125 L 17.078125 -32.78125 L 17.078125 -13.421875 C 17.078125 -11.441406 17.5625 -9.925781 18.53125 -8.875 C 19.5 -7.832031 20.894531 -7.3125 22.71875 -7.3125 C 24.851562 -7.3125 26.632812 -7.875 28.0625 -9 Z M 30.734375 -2.21875 "/></g></g></g><g fill="#2dabe3" fill-opacity="1"><g transform="translate(396.861801, 97.705701)"><g><path d="M 29.359375 -41.171875 C 34.492188 -41.171875 38.609375 -39.671875 41.703125 -36.671875 C 44.804688 -33.671875 46.359375 -29.222656 46.359375 -23.328125 L 46.359375 0 L 36.828125 0 L 36.828125 -22.109375 C 36.828125 -25.671875 35.988281 -28.351562 34.3125 -30.15625 C 32.632812 -31.957031 30.242188 -32.859375 27.140625 -32.859375 C 23.640625 -32.859375 20.867188 -31.800781 18.828125 -29.6875 C 16.796875 -27.582031 15.78125 -24.550781 15.78125 -20.59375 L 15.78125 0 L 6.25 0 L 6.25 -56.578125 L 15.78125 -56.578125 L 15.78125 -35.984375 C 17.351562 -37.660156 19.296875 -38.941406 21.609375 -39.828125 C 23.929688 -40.722656 26.515625 -41.171875 29.359375 -41.171875 Z M 29.359375 -41.171875 "/></g></g></g><g fill="#2dabe3" fill-opacity="1"><g transform="translate(449.079164, 97.705701)"><g><path d="M 44.53125 -20.125 C 44.53125 -19.46875 44.476562 -18.53125 44.375 -17.3125 L 12.421875 -17.3125 C 12.984375 -14.3125 14.445312 -11.929688 16.8125 -10.171875 C 19.175781 -8.421875 22.113281 -7.546875 25.625 -7.546875 C 30.09375 -7.546875 33.773438 -9.019531 36.671875 -11.96875 L 41.78125 -6.09375 C 39.957031 -3.914062 37.644531 -2.265625 34.84375 -1.140625 C 32.050781 -0.0234375 28.898438 0.53125 25.390625 0.53125 C 20.921875 0.53125 16.984375 -0.351562 13.578125 -2.125 C 10.171875 -3.90625 7.535156 -6.382812 5.671875 -9.5625 C 3.816406 -12.738281 2.890625 -16.335938 2.890625 -20.359375 C 2.890625 -24.328125 3.789062 -27.898438 5.59375 -31.078125 C 7.40625 -34.253906 9.910156 -36.726562 13.109375 -38.5 C 16.316406 -40.28125 19.925781 -41.171875 23.9375 -41.171875 C 27.90625 -41.171875 31.453125 -40.289062 34.578125 -38.53125 C 37.703125 -36.78125 40.140625 -34.316406 41.890625 -31.140625 C 43.648438 -27.960938 44.53125 -24.289062 44.53125 -20.125 Z M 23.9375 -33.546875 C 20.894531 -33.546875 18.316406 -32.644531 16.203125 -30.84375 C 14.085938 -29.039062 12.804688 -26.640625 12.359375 -23.640625 L 35.453125 -23.640625 C 35.046875 -26.585938 33.800781 -28.972656 31.71875 -30.796875 C 29.632812 -32.628906 27.039062 -33.546875 23.9375 -33.546875 Z M 23.9375 -33.546875 "/></g></g></g><g fill="#2dabe3" fill-opacity="1"><g transform="translate(496.494047, 97.705701)"><g><path d="M 15.328125 -34.765625 C 18.066406 -39.035156 22.894531 -41.171875 29.8125 -41.171875 L 29.8125 -32.09375 C 29 -32.25 28.265625 -32.328125 27.609375 -32.328125 C 23.890625 -32.328125 20.988281 -31.242188 18.90625 -29.078125 C 16.820312 -26.921875 15.78125 -23.8125 15.78125 -19.75 L 15.78125 0 L 6.25 0 L 6.25 -40.71875 L 15.328125 -40.71875 Z M 15.328125 -34.765625 "/></g></g></g><g fill="#2dabe3" fill-opacity="1"><g transform="translate(528.510526, 97.705701)"><g/></g></g><g fill="#2dabe3" fill-opacity="1"><g transform="translate(549.549925, 97.705701)"><g><path d="M 85.171875 -53.375 L 67.484375 0 L 56.953125 0 L 43.765625 -39.5 L 30.34375 0 L 19.75 0 L 2.0625 -53.375 L 12.359375 -53.375 L 25.625 -12.8125 L 39.421875 -53.375 L 48.578125 -53.375 L 62.0625 -12.578125 L 75.71875 -53.375 Z M 85.171875 -53.375 "/></g></g></g><g fill="#2dabe3" fill-opacity="1"><g transform="translate(636.756751, 97.705701)"><g><path d="M 6.25 -40.71875 L 15.78125 -40.71875 L 15.78125 0 L 6.25 0 Z M 11.0625 -47.421875 C 9.332031 -47.421875 7.882812 -47.96875 6.71875 -49.0625 C 5.550781 -50.15625 4.96875 -51.515625 4.96875 -53.140625 C 4.96875 -54.773438 5.550781 -56.132812 6.71875 -57.21875 C 7.882812 -58.3125 9.332031 -58.859375 11.0625 -58.859375 C 12.789062 -58.859375 14.238281 -58.335938 15.40625 -57.296875 C 16.570312 -56.253906 17.15625 -54.945312 17.15625 -53.375 C 17.15625 -51.695312 16.582031 -50.285156 15.4375 -49.140625 C 14.300781 -47.992188 12.84375 -47.421875 11.0625 -47.421875 Z M 11.0625 -47.421875 "/></g></g></g><g fill="#2dabe3" fill-opacity="1"><g transform="translate(658.787134, 97.705701)"><g><path d="M 18.828125 0.53125 C 15.523438 0.53125 12.296875 0.0976562 9.140625 -0.765625 C 5.992188 -1.628906 3.476562 -2.722656 1.59375 -4.046875 L 5.265625 -11.28125 C 7.085938 -10.0625 9.28125 -9.082031 11.84375 -8.34375 C 14.414062 -7.613281 16.945312 -7.25 19.4375 -7.25 C 25.132812 -7.25 27.984375 -8.75 27.984375 -11.75 C 27.984375 -13.164062 27.257812 -14.15625 25.8125 -14.71875 C 24.363281 -15.28125 22.035156 -15.8125 18.828125 -16.3125 C 15.472656 -16.820312 12.738281 -17.40625 10.625 -18.0625 C 8.519531 -18.726562 6.691406 -19.882812 5.140625 -21.53125 C 3.597656 -23.1875 2.828125 -25.488281 2.828125 -28.4375 C 2.828125 -32.300781 4.4375 -35.390625 7.65625 -37.703125 C 10.882812 -40.015625 15.242188 -41.171875 20.734375 -41.171875 C 23.535156 -41.171875 26.332031 -40.851562 29.125 -40.21875 C 31.925781 -39.582031 34.210938 -38.734375 35.984375 -37.671875 L 32.328125 -30.421875 C 28.867188 -32.453125 24.976562 -33.46875 20.65625 -33.46875 C 17.863281 -33.46875 15.742188 -33.046875 14.296875 -32.203125 C 12.847656 -31.367188 12.125 -30.269531 12.125 -28.90625 C 12.125 -27.375 12.898438 -26.289062 14.453125 -25.65625 C 16.003906 -25.019531 18.40625 -24.421875 21.65625 -23.859375 C 24.90625 -23.359375 27.570312 -22.773438 29.65625 -22.109375 C 31.738281 -21.453125 33.53125 -20.332031 35.03125 -18.75 C 36.53125 -17.175781 37.28125 -14.941406 37.28125 -12.046875 C 37.28125 -8.234375 35.628906 -5.179688 32.328125 -2.890625 C 29.023438 -0.609375 24.523438 0.53125 18.828125 0.53125 Z M 18.828125 0.53125 "/></g></g></g><g fill="#2dabe3" fill-opacity="1"><g transform="translate(698.045417, 97.705701)"><g><path d="M 44.53125 -20.125 C 44.53125 -19.46875 44.476562 -18.53125 44.375 -17.3125 L 12.421875 -17.3125 C 12.984375 -14.3125 14.445312 -11.929688 16.8125 -10.171875 C 19.175781 -8.421875 22.113281 -7.546875 25.625 -7.546875 C 30.09375 -7.546875 33.773438 -9.019531 36.671875 -11.96875 L 41.78125 -6.09375 C 39.957031 -3.914062 37.644531 -2.265625 34.84375 -1.140625 C 32.050781 -0.0234375 28.898438 0.53125 25.390625 0.53125 C 20.921875 0.53125 16.984375 -0.351562 13.578125 -2.125 C 10.171875 -3.90625 7.535156 -6.382812 5.671875 -9.5625 C 3.816406 -12.738281 2.890625 -16.335938 2.890625 -20.359375 C 2.890625 -24.328125 3.789062 -27.898438 5.59375 -31.078125 C 7.40625 -34.253906 9.910156 -36.726562 13.109375 -38.5 C 16.316406 -40.28125 19.925781 -41.171875 23.9375 -41.171875 C 27.90625 -41.171875 31.453125 -40.289062 34.578125 -38.53125 C 37.703125 -36.78125 40.140625 -34.316406 41.890625 -31.140625 C 43.648438 -27.960938 44.53125 -24.289062 44.53125 -20.125 Z M 23.9375 -33.546875 C 20.894531 -33.546875 18.316406 -32.644531 16.203125 -30.84375 C 14.085938 -29.039062 12.804688 -26.640625 12.359375 -23.640625 L 35.453125 -23.640625 C 35.046875 -26.585938 33.800781 -28.972656 31.71875 -30.796875 C 29.632812 -32.628906 27.039062 -33.546875 23.9375 -33.546875 Z M 23.9375 -33.546875 "/></g></g></g></svg>